<svg xmlns="http://www.w3.org/2000/svg" width="233.531" height="104.295" viewBox="0 0 233.531 104.295">
  <g id="グループ_496" data-name="グループ 496" transform="translate(-2517 -6588.669)">
    <g id="パス_130" data-name="パス 130" transform="translate(2555.934 6631.244) rotate(30)" fill="none">
      <path d="M0,0H36.489V10.035H0Z" stroke="none"/>
      <path d="M 36.48932266235352 -6.67572021484375e-06 L 36.48930740356445 10.03451633453369 L -3.814697265625e-06 10.03454685211182 L 1.1444091796875e-05 2.384185791015625e-05 L 30.7878589630127 8.58306884765625e-06 L 36.48932266235352 -6.67572021484375e-06 Z" stroke="none" fill="#009688"/>
    </g>
    <g id="パス_131" data-name="パス 131" transform="translate(2591.647 6598.868) rotate(60)" fill="none">
      <path d="M0,0H36.489V10.035H0Z" stroke="none"/>
      <path d="M 36.48932266235352 -6.67572021484375e-06 L 36.48930740356445 10.03451633453369 L -3.814697265625e-06 10.03454685211182 L 1.1444091796875e-05 2.384185791015625e-05 L 30.7878589630127 8.58306884765625e-06 L 36.48932266235352 -6.67572021484375e-06 Z" stroke="none" fill="#009688"/>
    </g>
    <g id="パス_132" data-name="パス 132" transform="translate(2638.783 6588.669) rotate(90)" fill="none">
      <path d="M0,0H36.489V10.035H0Z" stroke="none"/>
      <path d="M 36.48932266235352 -6.67572021484375e-06 L 36.48930740356445 10.03451633453369 L -3.814697265625e-06 10.03454685211182 L 1.1444091796875e-05 2.384185791015625e-05 L 30.7878589630127 8.58306884765625e-06 L 36.48932266235352 -6.67572021484375e-06 Z" stroke="none" fill="#009688"/>
    </g>
    <g id="パス_133" data-name="パス 133" transform="translate(2657.699 6630.24) rotate(-60)" fill="none">
      <path d="M0,0H36.489V10.035H0Z" stroke="none"/>
      <path d="M 36.48932266235352 -6.67572021484375e-06 L 36.48930740356445 10.03451633453369 L -3.814697265625e-06 10.03454685211182 L 1.1444091796875e-05 2.384185791015625e-05 L 30.7878589630127 8.58306884765625e-06 L 36.48932266235352 -6.67572021484375e-06 Z" stroke="none" fill="#009688"/>
    </g>
    <g id="パス_134" data-name="パス 134" transform="translate(2680.225 6649.092) rotate(-30)" fill="none">
      <path d="M0,0H36.489V10.035H0Z" stroke="none"/>
      <path d="M 36.48932266235352 -6.67572021484375e-06 L 36.48930740356445 10.03451633453369 L -3.814697265625e-06 10.03454685211182 L 1.1444091796875e-05 2.384185791015625e-05 L 30.7878589630127 8.58306884765625e-06 L 36.48932266235352 -6.67572021484375e-06 Z" stroke="none" fill="#009688"/>
    </g>
    <g id="合体_9" data-name="合体 9" transform="translate(2147.748 6590.874)" fill="none">
      <path d="M369.252,102.091V89.321h82.127a34.208,34.208,0,0,1,68.363,0h83.04v12.771Z" stroke="none"/>
      <path d="M 507.7638244628906 90.09149169921875 L 507.7520446777344 89.79111480712891 C 507.6381530761719 86.89053344726562 506.9736633300781 84.09161376953125 505.7773132324219 81.47294616699219 C 504.6148681640625 78.92899322509766 502.9970092773438 76.64774322509766 500.9698791503906 74.69382476806641 C 496.8118286132812 70.68703460693359 491.3397521972656 68.48040771484375 485.5617065429688 68.48040771484375 C 482.5583801269531 68.48040771484375 479.651123046875 69.06594848632812 476.9201049804688 70.22107696533203 C 474.27783203125 71.33844757080078 471.9012451171875 72.94153594970703 469.8576965332031 74.98448944091797 C 467.8147888183594 77.02740478515625 466.2115478515625 79.40424346923828 465.0930786132812 82.04766082763672 C 464.0544128417969 84.50332641601562 463.4747314453125 87.10757446289062 463.3702087402344 89.78811645507812 L 463.3583679199219 90.09149169921875 L 507.7638244628906 90.09149169921875 M 602.7831420898438 102.0914916992188 L 369.2520446777344 102.0914916992188 L 369.2520446777344 89.32048797607422 L 451.3793334960938 89.32048797607422 C 451.5405883789062 85.18573760986328 452.4338989257812 81.17261505126953 454.0410461425781 77.37299346923828 C 455.7645263671875 73.29961395263672 458.2304992675781 69.64111328125 461.3724060058594 66.49919891357422 C 464.5143432617188 63.35820007324219 468.1728210449219 60.89128494262695 472.2462158203125 59.168701171875 C 476.463623046875 57.38490676879883 480.9438171386719 56.48040771484375 485.5617065429688 56.48040771484375 C 494.4609069824219 56.48040771484375 502.8903198242188 59.87969970703125 509.2965087890625 66.05278015136719 C 512.4122924804688 69.05611419677734 514.9008178710938 72.56611633300781 516.6918334960938 76.48561859130859 C 518.5404052734375 80.53199005126953 519.5673217773438 84.85019683837891 519.7427978515625 89.32048797607422 L 566.2935180664062 89.32048797607422 L 602.7831420898438 89.32048797607422 L 602.7831420898438 102.0914916992188 Z" stroke="none" fill="#009688"/>
    </g>
    <g id="パス_141" data-name="パス 141" transform="translate(2595.312 6647.354)" fill="#fff">
      <path d="M38.454,0Z" stroke="none"/>
      <path d="M 32.78219985961914 0 L 44.12634658813477 0 L 32.78219985961914 0 Z" stroke="none" fill="#707070"/>
    </g>
  </g>
</svg>
