<svg xmlns="http://www.w3.org/2000/svg" width="196.875" height="212.956" viewBox="0 0 196.875 212.956">
  <path id="前面オブジェクトで型抜き_2" data-name="前面オブジェクトで型抜き 2" d="M107.75,269a108.538,108.538,0,0,1-21.715-2.189A107.157,107.157,0,0,1,47.506,250.6,108.072,108.072,0,0,1,8.468,203.185a107.223,107.223,0,0,1-6.278-20.227A108.565,108.565,0,0,1,0,161.241a107.785,107.785,0,0,1,84.285-105.2A107.2,107.2,0,0,0,65.66,116.621a108.564,108.564,0,0,0,2.189,21.717,107.173,107.173,0,0,0,16.213,38.532,108.066,108.066,0,0,0,47.407,39.042,107.207,107.207,0,0,0,20.226,6.279,108.749,108.749,0,0,0,45.18-.373,108.27,108.27,0,0,1-37.94,34.271A107.263,107.263,0,0,1,107.75,269Z" transform="translate(0 -56.044)" fill="#009688"/>
</svg>
