<svg xmlns="http://www.w3.org/2000/svg" width="196.875" height="212.956" viewBox="0 0 196.875 212.956">
  <g id="前面オブジェクトで型抜き_11" data-name="前面オブジェクトで型抜き 11" transform="translate(0 -56.044)" fill="none">
    <path d="M107.75,269a108.538,108.538,0,0,1-21.715-2.189A107.157,107.157,0,0,1,47.506,250.6,108.072,108.072,0,0,1,8.468,203.185a107.223,107.223,0,0,1-6.278-20.227A108.565,108.565,0,0,1,0,161.241a107.785,107.785,0,0,1,84.285-105.2A107.2,107.2,0,0,0,65.66,116.621a108.564,108.564,0,0,0,2.189,21.717,107.173,107.173,0,0,0,16.213,38.532,108.066,108.066,0,0,0,47.407,39.042,107.207,107.207,0,0,0,20.226,6.279,108.749,108.749,0,0,0,45.18-.373,108.27,108.27,0,0,1-37.94,34.271A107.263,107.263,0,0,1,107.75,269Z" stroke="none"/>
    <path d="M 107.7496719360352 253.9996795654297 C 115.5799179077148 253.9996795654297 123.353874206543 253.0248565673828 130.8555450439453 251.1022186279297 C 138.1314544677734 249.2374725341797 145.1776733398438 246.4762268066406 151.7984619140625 242.8951873779297 C 154.2730255126953 241.5567626953125 156.6877899169922 240.1041717529297 159.0328979492188 238.5443267822266 C 155.5548553466797 238.1382904052734 152.1002197265625 237.5851135253906 148.6872100830078 236.8866882324219 C 140.7991638183594 235.2723541259766 133.0400390625 232.8636016845703 125.6252517700195 229.7271881103516 C 118.3488388061523 226.6492614746094 111.3316268920898 222.8402709960938 104.7685470581055 218.4059295654297 C 98.27175140380859 214.0164337158203 92.16313171386719 208.9760131835938 86.61246490478516 203.4247741699219 C 81.06150054931641 197.8733062744141 76.02154541015625 191.7642211914062 71.63266754150391 185.2672271728516 C 67.19904327392578 178.7041473388672 63.39041900634766 171.6863861083984 60.31250381469727 164.4088439941406 C 57.1765022277832 156.9937286376953 54.76800155639648 149.2341003417969 53.15387725830078 141.3455657958984 C 51.49929428100586 133.2590637207031 50.66033554077148 124.9406433105469 50.66033554077148 116.6213912963867 C 50.66033554077148 105.8802337646484 52.04159927368164 95.30767822265625 54.73971176147461 85.11295318603516 C 47.60424423217773 90.09004211425781 41.21520614624023 96.03060913085938 35.70367050170898 102.8190612792969 C 29.13571166992188 110.9086456298828 24.01871109008789 119.9534301757812 20.49475288391113 129.7023162841797 C 16.84875297546387 139.7888031005859 15.00004482269287 150.3998107910156 15.00004482269287 161.2405548095703 C 15.00004482269287 167.5440979003906 15.63412761688232 173.8391418457031 16.88467025756836 179.950927734375 C 18.10183715820312 185.8995971679688 19.91800308227539 191.7509307861328 22.2828369140625 197.3424377441406 C 24.60596084594727 202.8355102539062 27.48221206665039 208.1348571777344 30.83162879943848 213.0930633544922 C 34.15187835693359 218.0081481933594 37.96541976928711 222.6304779052734 42.16616821289062 226.8316040039062 C 46.36704635620117 231.0328063964844 50.98896026611328 234.8466796875 55.90333557128906 238.1670989990234 C 60.86125183105469 241.516845703125 66.15995788574219 244.3932647705078 71.65233612060547 246.7165222167969 C 77.24325561523438 249.0814819335938 83.09391784667969 250.8977661132812 89.04175567626953 252.1150207519531 C 95.1527099609375 253.3656005859375 101.4469604492188 253.9996795654297 107.7496719360352 253.9996795654297 M 107.7496719360352 268.9996948242188 C 100.4391250610352 268.9996948242188 93.13300323486328 268.2631530761719 86.03437805175781 266.8104248046875 C 79.11625671386719 265.3946533203125 72.31137847900391 263.2820739746094 65.80867004394531 260.5314331054688 C 59.4239616394043 257.8307189941406 53.26604461669922 254.4879760742188 47.50583648681641 250.59619140625 C 41.80029296875 246.7411804199219 36.43508529663086 242.3141021728516 31.55916976928711 237.4378051757812 C 26.68329429626465 232.5614776611328 22.2565860748291 227.1957702636719 18.4019603729248 221.4897308349609 C 14.51037788391113 215.7288513183594 11.16796112060547 209.5703430175781 8.467544555664062 203.1852264404297 C 5.717127799987793 196.6819763183594 3.604753017425537 189.8764801025391 2.189127922058105 182.957763671875 C 0.7365446090698242 175.8585968017578 4.459635238163173e-05 168.5518493652344 4.459635238163173e-05 161.2405548095703 C 4.459635238163173e-05 148.6562194824219 2.149252891540527 136.3296051025391 6.388086318969727 124.6031036376953 C 10.48429489135742 113.2711029052734 16.42950248718262 102.7608489990234 24.05854415893555 93.36434936523438 C 31.62166976928711 84.04901885986328 40.60900115966797 76.10889434814453 50.77100372314453 69.76451873779297 C 61.12529373168945 63.30010223388672 72.40104675292969 58.6838493347168 84.28495788574219 56.04401779174805 C 72.10092163085938 73.93876647949219 65.66033935546875 94.88559722900391 65.66033935546875 116.6213912963867 C 65.66033935546875 123.9327239990234 66.39683532714844 131.2394714355469 67.84941864013672 138.3386383056641 C 69.26508331298828 145.2573852539062 71.37746429443359 152.0628967285156 74.12779235839844 158.5661010742188 C 76.82833862304688 164.9513854980469 80.17075347900391 171.1098937988281 84.06229400634766 176.8705596923828 C 87.91687774658203 182.5765991210938 92.3436279296875 187.9423065185547 97.21950531005859 192.818603515625 C 102.0952529907227 197.6948547363281 107.4604644775391 202.1219329833984 113.166130065918 205.9769287109375 C 118.9263763427734 209.8688049316406 125.0842971801758 213.2115936279297 131.4689636230469 215.9123077392578 C 137.9717559814453 218.6629333496094 144.7766723632812 220.7754821777344 151.6946716308594 222.1912689208984 C 158.7933349609375 223.6439361572266 166.0993804931641 224.3805541992188 173.4100036621094 224.3805541992188 C 181.3250885009766 224.3805541992188 189.2197570800781 223.5183868408203 196.874755859375 221.8179779052734 C 192.0403747558594 228.9181823730469 186.3553771972656 235.4405975341797 179.9785003662109 241.2052612304688 C 173.5798797607422 246.9895935058594 166.4997100830078 251.9971771240234 158.9346313476562 256.0889282226562 C 151.2363739013672 260.2527770996094 143.0421295166016 263.4637145996094 134.5795440673828 265.6325988769531 C 125.8619232177734 267.8668518066406 116.8350448608398 268.9996948242188 107.7496719360352 268.9996948242188 Z" stroke="none" fill="#009688"/>
  </g>
</svg>
