<svg xmlns="http://www.w3.org/2000/svg" width="111.543" height="97.555" viewBox="0 0 111.543 97.555">
  <g id="グループ_475" data-name="グループ 475" transform="translate(-318 -106.354)">
    <g id="グループ_469" data-name="グループ 469" transform="translate(319.442 169.606)">
      <text id="Be_Healthy" data-name="Be Healthy" transform="translate(52.558 23.394)" fill="#80cbc4" font-size="22" font-family="Helvetica-Light, Helvetica" font-weight="300"><tspan x="-53.801" y="0">Be Healthy</tspan></text>
      <path id="パス_230" data-name="パス 230" d="M254.564-708.8c10.78,7.157,25.459,8.177,35.762,7.524,12.338-.774,19.95-4.811,28.351-11.264a39.139,39.139,0,0,0,12.564-17.823L254.564-708.8l-33.081-5.031s-5.129-28.832,24.3-1.684A77.573,77.573,0,0,0,254.564-708.8Z" transform="translate(-221.14 735.415)" fill="#80cbc4" opacity="0.257"/>
      <text id="Be_Healthy-2" data-name="Be Healthy" transform="translate(52.558 23.394)" fill="#009688" font-size="22" font-family="Helvetica-Light, Helvetica" font-weight="300"><tspan x="-53.801" y="0">Be Healthy</tspan></text>
    </g>
    <g id="グループ_467" data-name="グループ 467" transform="translate(344.305 106.354)">
      <path id="パス_233" data-name="パス 233" d="M337.292-568.31" transform="translate(-307.55 603.983)" fill="#009688"/>
      <path id="パス_234" data-name="パス 234" d="M255.368-606.557a32.534,32.534,0,0,0,2.676,10.478,41.766,41.766,0,0,0,6.717,9.549s5.832,5.51,13.124,7.2,16.044-.443,16.044-.443,7.671-2.757,12.709-7.438a30.514,30.514,0,0,0,7.236-11.268l-29.262-8.076-21.887-22.012a39.846,39.846,0,0,0-6.02,10.651A32.032,32.032,0,0,0,255.368-606.557Z" transform="translate(-255.305 642.382)" fill="#009688"/>
      <path id="パス_235" data-name="パス 235" d="M370.772-601.261l-27.562-7.426,20.2-20.234s4.956,6.185,6.8,13.1A39.6,39.6,0,0,1,370.772-601.261Z" transform="translate(-311.32 642.606)" fill="#009688"/>
      <path id="パス_236" data-name="パス 236" d="M289.983-637.012s-1.971-.456-3.913-1.026-3.856-1.253-3.856-1.253a16.672,16.672,0,0,1,8.8-1.95c4.471.5,9.082,3.937,9.082,3.937s-2.249.219-4.778.292S289.983-637.012,289.983-637.012Z" transform="translate(-272.452 650.499)" fill="#009688"/>
      <path id="パス_237" data-name="パス 237" d="M301.04-617.5,321.6-638.025a12.679,12.679,0,0,0-9.125-2.4c-5.727.557-13.784,4.624-13.784,4.624a36.3,36.3,0,0,1-4.621.4c-2.519.054-5.455-.186-5.455-.186s-2.2-.416-4.254-.995-3.957-1.318-3.957-1.318Z" transform="translate(-271.298 649.979)" fill="#009688"/>
      <path id="パス_238" data-name="パス 238" d="M335.235-650.631a6.884,6.884,0,0,1-.991-.618,1.138,1.138,0,0,0-.727-.3,4.932,4.932,0,0,0-1.316-.177,7.809,7.809,0,0,1-1.591-.209,3.169,3.169,0,0,1,.473-1.642,3.771,3.771,0,0,1,1.458-1.066,7.611,7.611,0,0,1,1.7,1.727A8.291,8.291,0,0,1,335.235-650.631Z" transform="translate(-303.292 658.997)" fill="#009688"/>
      <path id="パス_239" data-name="パス 239" d="M343.418-661.683a16.064,16.064,0,0,1-1.219-1.789,11.5,11.5,0,0,1-.8-1.785,2.892,2.892,0,0,1,1-1.165,2.605,2.605,0,0,1,1.47-.193,3.545,3.545,0,0,1,0,1.158,3.1,3.1,0,0,1-.445,1.018Z" transform="translate(-310.164 666.646)" fill="#009688"/>
      <path id="パス_240" data-name="パス 240" d="M354.022-655.566a8.306,8.306,0,0,1-.57-1.89,7.233,7.233,0,0,1,0-1.893l1.156-1.291a2.853,2.853,0,0,1,1.158.257,2.424,2.424,0,0,1,.811.783,4.643,4.643,0,0,1-.811,1.1,5,5,0,0,1-1.158.785,1.313,1.313,0,0,1,0,.848A7.134,7.134,0,0,1,354.022-655.566Z" transform="translate(-317.807 662.818)" fill="#009688"/>
      <g id="グループ_473" data-name="グループ 473" transform="translate(17.695 11.646)">
        <circle id="楕円形_73" data-name="楕円形 73" cx="1.5" cy="1.5" r="1.5" transform="translate(6 9)" fill="#fafafa"/>
        <circle id="楕円形_74" data-name="楕円形 74" cx="1" cy="1" r="1" transform="translate(15 9)" fill="#fafafa"/>
        <circle id="楕円形_75" data-name="楕円形 75" cx="1" cy="1" r="1" transform="translate(9 5)" fill="#fafafa"/>
        <circle id="楕円形_76" data-name="楕円形 76" cx="1" cy="1" r="1" transform="translate(22)" fill="#fafafa"/>
        <circle id="楕円形_77" data-name="楕円形 77" cx="1" cy="1" r="1" transform="translate(0 5)" fill="#fafafa"/>
        <circle id="楕円形_78" data-name="楕円形 78" cx="0.5" cy="0.5" r="0.5" transform="translate(5 4)" fill="#fafafa"/>
        <circle id="楕円形_79" data-name="楕円形 79" cx="1" cy="1" r="1" transform="translate(14 2)" fill="#fafafa"/>
        <circle id="楕円形_80" data-name="楕円形 80" cx="0.5" cy="0.5" r="0.5" transform="translate(19 5)" fill="#fafafa"/>
        <circle id="楕円形_81" data-name="楕円形 81" cx="1" cy="1" r="1" transform="translate(24 4)" fill="#fafafa"/>
      </g>
    </g>
  </g>
</svg>
