<svg xmlns="http://www.w3.org/2000/svg" width="235.931" height="203" viewBox="0 0 235.931 203">
  <g id="グループ_499" data-name="グループ 499" transform="translate(-2171.5 -7199)">
    <path id="合体_10" data-name="合体 10" d="M155,193ZM0,193V164.351a23.643,23.643,0,0,0,4.748.481H16.057a23.473,23.473,0,1,0,0-46.946H4.748A23.682,23.682,0,0,0,0,118.366V75.676a23.636,23.636,0,0,0,4.748.481H16.057a23.473,23.473,0,1,0,0-46.946H4.748A23.656,23.656,0,0,0,0,29.691V0H155V66.623l6.393-6.364,25.125,24.988L155,117.544V193H0Z" transform="translate(2193 7204)" fill="none" stroke="#009688" stroke-width="10"/>
    <path id="パス_154" data-name="パス 154" d="M2684.312,7272.75" transform="translate(-296.674 9.232)" fill="none" stroke="#009688" stroke-width="5"/>
    <path id="パス_271" data-name="パス 271" d="M9.5,0H22.013a9.5,9.5,0,0,1,9.5,9.5v8.451H0V9.5A9.5,9.5,0,0,1,9.5,0Z" transform="translate(2378.077 7244.144) rotate(45)" fill="none" stroke="#009688" stroke-width="10"/>
    <rect id="長方形_967" data-name="長方形 967" width="42" height="16" rx="8" transform="translate(2176.5 7248.5)" fill="none" stroke="#009688" stroke-width="10"/>
    <rect id="長方形_969" data-name="長方形 969" width="42" height="16" rx="8" transform="translate(2176.5 7336.5)" fill="none" stroke="#009688" stroke-width="10"/>
    <path id="パス_269" data-name="パス 269" d="M2348,7399.5l0-25.064" fill="none" stroke="#009688" stroke-width="5"/>
    <path id="パス_270" data-name="パス 270" d="M2656,7255.761l-62.595,62.311v25.737h26.178l61.542-63.061Z" transform="translate(-301.604 8.499)" fill="none" stroke="#009688" stroke-width="10"/>
  </g>
</svg>
