<svg xmlns="http://www.w3.org/2000/svg" width="200" height="200" viewBox="0 0 200 200">
  <g id="グループ_447" data-name="グループ 447" transform="translate(-2726 -7204)">
    <rect id="長方形_956" data-name="長方形 956" width="200" height="200" rx="20" transform="translate(2726 7204)" fill="#009688"/>
    <path id="前面オブジェクトで型抜き_3" data-name="前面オブジェクトで型抜き 3" d="M56.331,43.066H10.213L0,13.338H.1c8.714-4.9,15.854-7.982,23.149-10C30.151,1.436,37.564.409,47.286.013,47.77,0,48.262,0,48.749,0A91.956,91.956,0,0,1,67.9,2.084,106.5,106.5,0,0,1,83.391,6.669a90.729,90.729,0,0,1,14.155,6.669L87.213,43.065H63.439l3.868-21.941-6.893-1.216L56.331,43.065Z" transform="translate(2776.787 7235.935)" fill="#fafafa"/>
  </g>
</svg>
