<svg xmlns="http://www.w3.org/2000/svg" width="230.735" height="176.519" viewBox="0 0 230.735 176.519">
  <g id="グループ_462" data-name="グループ 462" transform="translate(-43.601 -249.019)">
    <path id="パス_155" data-name="パス 155" d="M156.17,137.275c-.632,0-1.271-.01-1.9-.03l.014-.455c.9.028,1.819.036,2.724.023l.006.456Q156.594,137.275,156.17,137.275Zm3.589-.106-.027-.455c.9-.053,1.815-.128,2.714-.222l.048.453C161.588,137.041,160.668,137.116,159.759,137.17Zm-8.227-.071c-.909-.07-1.828-.161-2.731-.272l.056-.452c.9.11,1.808.2,2.71.27Zm13.685-.5-.068-.451c.9-.136,1.8-.294,2.683-.469l.089.447C167.029,136.3,166.119,136.461,165.216,136.6Zm-19.131-.167c-.9-.152-1.8-.327-2.695-.52l.1-.446c.883.192,1.783.365,2.674.516Zm24.513-.9-.11-.443c.879-.217,1.764-.458,2.629-.714l.13.437C172.376,135.067,171.485,135.309,170.6,135.528Zm-29.876-.261c-.881-.234-1.768-.492-2.635-.767l.137-.434c.861.272,1.741.528,2.615.76Zm35.137-1.3-.15-.43c.853-.3,1.712-.617,2.551-.954l.169.423c-.846.339-1.711.662-2.571.961Zm-40.376-.357c-.856-.315-1.717-.654-2.559-1.009l.177-.42c.836.352,1.69.689,2.539,1Zm45.466-1.679-.189-.415c.82-.372,1.643-.77,2.448-1.181l.207.406C182.6,131.155,181.775,131.555,180.949,131.931Zm4.877-2.493-.226-.4c.786-.449,1.571-.92,2.332-1.4l.244.385C187.409,128.51,186.618,128.986,185.826,129.437Zm4.632-2.931-.261-.373c.74-.517,1.479-1.059,2.2-1.609l.278.361C191.949,125.44,191.2,125.986,190.458,126.507Zm-69.478-.642c-.736-.534-1.471-1.094-2.185-1.664l.284-.356c.708.566,1.438,1.121,2.168,1.651Zm73.826-2.7-.294-.349c.69-.582,1.376-1.189,2.041-1.8l.309.335C196.193,121.967,195.5,122.578,194.807,123.165Zm-78.117-.726c-.685-.6-1.366-1.224-2.023-1.855l.316-.329c.652.626,1.328,1.246,2.008,1.841Zm82.145-3-.325-.32c.636-.644,1.265-1.311,1.869-1.982l.339.3C200.109,118.118,199.475,118.79,198.835,119.439Zm-86.1-.8c-.629-.661-1.25-1.344-1.845-2.031l.344-.3c.591.681,1.207,1.359,1.831,2.015Zm89.779-3.278-.352-.289c.574-.7,1.14-1.421,1.682-2.145l.365.273c-.546.73-1.116,1.457-1.695,2.161Zm-93.375-.865c-.565-.713-1.12-1.45-1.652-2.189l.37-.266c.528.733,1.08,1.464,1.64,2.173Zm96.664-3.532-.377-.256c.508-.749,1.006-1.519,1.48-2.29l.389.239c-.477.777-.979,1.553-1.491,2.308Zm-99.866-.918c-.5-.761-.983-1.545-1.445-2.329l.393-.231c.459.778.941,1.556,1.434,2.312Zm102.742-3.763-.4-.22c.438-.792.863-1.605,1.264-2.417l.409.2C209.543,104.664,209.114,105.484,208.673,106.282Zm2.434-4.928-.418-.183c.363-.83.712-1.679,1.037-2.525l.426.163C211.825,99.662,211.473,100.518,211.107,101.354Zm-110.294-.984c-.349-.839-.684-1.7-.995-2.551l.428-.156c.308.847.64,1.7.987,2.531Zm112.266-4.152-.433-.143c.284-.857.553-1.733.8-2.6l.439.123C213.636,94.472,213.365,95.355,213.079,96.218Zm-114.138-1c-.271-.869-.526-1.756-.757-2.638l.441-.116c.23.875.483,1.756.752,2.618Zm115.624-4.284-.444-.1c.2-.879.391-1.776.555-2.666l.448.082c-.165.9-.353,1.8-.559,2.687ZM97.548,89.911c-.19-.89-.362-1.8-.511-2.7l.45-.075c.148.892.319,1.792.507,2.676Zm118.01-4.372-.452-.062c.123-.893.226-1.8.308-2.706l.454.041c-.082.91-.187,1.827-.31,2.727ZM96.65,84.5c-.108-.9-.2-1.821-.262-2.732l.455-.033c.066.9.154,1.815.26,2.711Zm119.4-4.424-.455-.02c.041-.9.061-1.819.061-2.723h.456C216.115,78.241,216.094,79.164,216.053,80.074Zm-119.8-1.049c-.016-.559-.023-1.129-.024-1.695q0-.526.009-1.05l.456.008q-.009.52-.009,1.042c0,.561.008,1.127.023,1.682Zm.549-5.458-.455-.028c.057-.911.135-1.831.233-2.734l.453.049c-.1.9-.175,1.81-.231,2.714Zm118.566-2.781c-.091-.9-.216-1.337-.348-2.232l.451-.067c.133.9.247,1.59.339,2.5ZM97.385,68.153l-.451-.07c.14-.9.3-1.811.482-2.7l.447.09C97.685,66.356,97.523,67.258,97.385,68.153ZM214.556,65.87c-.174-.889-.37-1.784-.583-2.66l.443-.108c.215.883.412,1.785.588,2.681ZM98.465,62.816l-.442-.111c.221-.883.467-1.773.729-2.646l.436.131C98.928,61.056,98.684,61.939,98.465,62.816Zm114.8-2.237c-.254-.868-.532-1.741-.826-2.6l.431-.148c.3.861.576,1.741.832,2.615ZM100.034,57.593l-.43-.151c.3-.862.63-1.728.972-2.574l.423.171c-.34.839-.664,1.7-.965,2.554ZM211.5,55.429c-.333-.839-.689-1.681-1.059-2.5l.416-.187c.373.828.732,1.676,1.067,2.522Zm-109.418-2.9-.414-.19c.381-.829.786-1.661,1.2-2.471l.405.209C102.86,50.886,102.458,51.711,102.08,52.534Zm107.187-2.059c-.408-.8-.84-1.611-1.285-2.4l.4-.225c.448.792.883,1.6,1.295,2.415ZM104.582,47.687l-.4-.227c.455-.79.934-1.58,1.425-2.349l.384.245C105.509,46.119,105.033,46.9,104.582,47.687Zm102.007-1.945c-.482-.767-.986-1.531-1.5-2.271l.374-.26c.517.746,1.025,1.515,1.511,2.288Zm-99.073-2.649-.373-.263c.526-.745,1.075-1.488,1.633-2.208l.36.279C108.583,41.615,108.037,42.352,107.516,43.092Zm95.972-1.822c-.549-.72-1.121-1.435-1.7-2.126l.349-.293c.584.7,1.16,1.417,1.714,2.142Zm-92.632-2.484-.347-.3c.59-.693,1.2-1.382,1.827-2.049l.333.311C112.051,37.414,111.441,38.1,110.856,38.786ZM199.991,37.1c-.612-.667-1.248-1.327-1.888-1.963l.321-.323c.645.641,1.285,1.307,1.9,1.978ZM114.572,34.8l-.319-.326c.652-.638,1.326-1.268,2-1.874l.3.34C115.889,33.545,115.219,34.171,114.572,34.8Zm81.556-1.545c-.671-.609-1.364-1.209-2.059-1.784l.291-.351c.7.58,1.4,1.184,2.075,1.8Zm-77.5-2.081-.288-.353c.705-.574,1.434-1.14,2.166-1.683l.272.366C120.056,30.045,119.333,30.607,118.633,31.177Zm4.372-3.241-.254-.378c.755-.508,1.531-1,2.309-1.478l.237.39C124.525,26.939,123.754,27.433,123.006,27.937Zm4.647-2.827-.219-.4c.8-.437,1.617-.861,2.433-1.26l.2.41C129.257,24.256,128.445,24.676,127.652,25.11Zm55.015-1.056c-.811-.4-1.642-.795-2.47-1.16l.184-.417c.834.369,1.671.762,2.489,1.169Zm-50.132-1.332-.181-.418c.834-.362,1.688-.708,2.536-1.031l.162.426C134.21,22.019,133.363,22.363,132.535,22.722Zm45.141-.874c-.844-.327-1.708-.64-2.568-.928l.145-.432c.866.291,1.737.605,2.587.935ZM137.62,20.791l-.142-.433c.866-.284,1.75-.551,2.627-.795l.122.439C139.357,20.244,138.479,20.509,137.62,20.791Zm34.887-.678c-.869-.248-1.756-.479-2.636-.686l.1-.444c.886.209,1.78.441,2.656.691Zm-29.64-.778-.1-.444c.888-.2,1.793-.388,2.689-.549l.081.449C144.646,18.95,143.748,19.133,142.867,19.335Zm24.34-.471c-.888-.167-1.792-.315-2.687-.441l.063-.451c.9.127,1.814.276,2.708.444Zm-18.981-.5-.06-.452c.9-.12,1.82-.222,2.728-.3l.04.454C150.032,18.148,149.122,18.248,148.226,18.368Zm13.588-.262c-.9-.085-1.812-.15-2.717-.194l.022-.455c.911.044,1.832.11,2.737.2Zm-8.163-.212-.019-.455c.838-.035,1.692-.053,2.538-.053h.206v.456h-.205c-.84,0-1.688.018-2.519.053Z" transform="translate(-50.011 231.634)" fill="#fafafa"/>
    <path id="パス_156" data-name="パス 156" d="M432.852,89.1V236.844a6.641,6.641,0,0,1-6.64,6.635H366.233a6.628,6.628,0,0,1-6.639-6.635V89.1a6.639,6.639,0,0,1,6.64-6.64h8.975v1.151a5.467,5.467,0,0,0,5.466,5.468h30.505a5.422,5.422,0,0,0,3.241-1.067,5.075,5.075,0,0,0,.538-.451,5.451,5.451,0,0,0,1.687-3.95V82.462h9.566a6.638,6.638,0,0,1,6.64,6.64Z" transform="translate(-253.351 181.39)" fill="rgba(229,229,229,0.84)" stroke="#3f3d56" stroke-width="1"/>
    <rect id="長方形_970" data-name="長方形 970" width="55.72" height="42.394" transform="translate(115.012 317.112)" fill="#009688"/>
    <path id="パス_157" data-name="パス 157" d="M238.651,284.784c4.961.106,8.907,3.7,8.907,3.7s-4.1,3.423-9.058,3.316-8.907-3.7-8.907-3.7S233.69,284.678,238.651,284.784Z" transform="translate(-152.981 25.184)" fill="#009688"/>
    <path id="パス_158" data-name="パス 158" d="M137.518,185.076c4.482,2.129,9.622.685,9.622.685s-2.127-4.9-6.609-7.026-9.622-.685-9.622-.685S133.036,182.946,137.518,185.076Z" transform="translate(-76.789 107.958)" fill="#009688"/>
    <path id="パス_159" data-name="パス 159" d="M132.679,201.06c4.942-.452,9.267,2.677,9.267,2.677s-3.687,3.861-8.628,4.313-9.267-2.677-9.267-2.677S127.738,201.512,132.679,201.06Z" transform="translate(-71.495 89.858)" fill="#3f3d56"/>
    <path id="パス_160" data-name="パス 160" d="M241.213,175.8c-.474,4.939,2.636,9.279,2.636,9.279s3.878-3.669,4.351-8.609-2.636-9.279-2.636-9.279S241.687,170.864,241.213,175.8Z" transform="translate(-161.915 115.97)" fill="#3f3d56"/>
    <path id="パス_161" data-name="パス 161" d="M337.223,318.131c-2.592,4.231-1.7,9.495-1.7,9.495s5.094-1.6,7.686-5.828,1.7-9.495,1.7-9.495S339.815,313.9,337.223,318.131Z" transform="translate(-234.652 3.936)" fill="#3f3d56"/>
    <path id="パス_162" data-name="パス 162" d="M223.487,287.086l.378-.255a11.834,11.834,0,0,1-2.089-6.563c.011-3.432,1.7-6.606,3.327-9.676.3-.57.6-1.138.894-1.705a37.227,37.227,0,0,0,2.9-7.269c2.529-9.4.039-20.485-6.66-29.658-5.314-7.277-13.236-13.641-24.218-19.455l-.213.4c10.919,5.781,18.791,12.1,24.063,19.321,6.618,9.063,9.081,20.006,6.588,29.271a36.786,36.786,0,0,1-2.861,7.18c-.289.565-.59,1.131-.891,1.7-1.656,3.119-3.369,6.344-3.38,9.889A12.294,12.294,0,0,0,223.487,287.086Z" transform="translate(-128.436 80.988)" fill="#3f3d56"/>
    <circle id="楕円形_36" data-name="楕円形 36" cx="4.331" cy="4.331" r="4.331" transform="translate(43.601 285.43)" fill="#3f3d56"/>
    <path id="パス_163" data-name="パス 163" d="M194.378,339.826l-27.185-2.265V297.69l27.185-1.359Z" transform="translate(-85.484 20.23)" fill="#009688"/>
    <path id="パス_164" data-name="パス 164" d="M584.61,340.149l27.185-2.282V297.7l-27.185-1.369Z" transform="translate(-407.76 19.908)" fill="#009688"/>
    <path id="パス_165" data-name="パス 165" d="M486.871,358.649a5.432,5.432,0,0,0-5.96-.758,8.044,8.044,0,0,1-2.646.757,15.313,15.313,0,0,1,1.076-5.816l.12-.31h-1.6l-.046.168a17.687,17.687,0,0,0-.42,1.989,5.156,5.156,0,0,0-.334-.844,7.311,7.311,0,0,0-3.82-3.168l-.221-.076-.07.223a7.311,7.311,0,0,0,.277,4.955,6.922,6.922,0,0,0,3.216,2.915,8.266,8.266,0,0,1-3.127-.836,3.647,3.647,0,0,0-3.861.326,11.457,11.457,0,0,0-4.694,9.117,11.917,11.917,0,0,0,7.644,10.81,3.438,3.438,0,0,0,1.322.262,3.505,3.505,0,0,0,1.79-.491,4.733,4.733,0,0,1,4.742-.009,3.5,3.5,0,0,0,3.114.219,11.917,11.917,0,0,0,7.6-10.791A11.292,11.292,0,0,0,486.871,358.649Zm-8.659-5.671h.587a15.719,15.719,0,0,0-.993,5.525h-.1A16.581,16.581,0,0,1,478.212,352.978Zm-4.576,2.585a6.773,6.773,0,0,1-.313-4.376,5.69,5.69,0,0,1,3.645,7.228A6.773,6.773,0,0,1,473.636,355.563Zm9.563,22.1a3.036,3.036,0,0,1-2.706-.192,5.189,5.189,0,0,0-5.207.011,3.034,3.034,0,0,1-2.7.2,11.463,11.463,0,0,1-7.364-10.389,11.005,11.005,0,0,1,4.514-8.754,3.158,3.158,0,0,1,1.911-.638,3.2,3.2,0,0,1,1.464.354,9.41,9.41,0,0,0,8,.048,4.976,4.976,0,0,1,5.461.7,10.842,10.842,0,0,1,3.945,8.295A11.463,11.463,0,0,1,483.2,377.66Z" transform="translate(-334.55 -25.625)" fill="#fff"/>
    <path id="パス_166" data-name="パス 166" d="M290.8,356.305v-.535h.213V354.1a.674.674,0,0,0-.36-.6,3.243,3.243,0,0,0-3,0,.679.679,0,0,0-.388.615v1.651h.213v.484a3.715,3.715,0,0,0-2.712,3.592v3.607l.405.135-.405.27v1.084l.405.135-.405.27v1.084l.405.135-.405.27v8.256a2.432,2.432,0,0,0,2.429,2.429h3.581A2.426,2.426,0,0,0,293.2,375.1v-8.262l-.405-.27.405-.135v-1.084l-.405-.27.405-.135v-1.084l-.405-.27.405-.135V359.66a3.566,3.566,0,0,0-2.393-3.355Zm-2.959-2.388a2.776,2.776,0,0,1,2.6-.011.222.222,0,0,1,.115.2V355h-2.841v-.876A.222.222,0,0,1,287.844,353.917Zm4.9,9.208-.978.326.978.652v.512l-.978.326.978.652v.512l-.978.326.978.652V375.1a1.97,1.97,0,0,1-1.968,1.968h-3.581a1.975,1.975,0,0,1-1.973-1.973v-8.012l.978-.652-.978-.326v-.512l.978-.652-.978-.326V364.1l.978-.652-.978-.326v-3.279a3.262,3.262,0,0,1,2.536-3.193l.177-.041v-.842h2.416v.873l.164.048a3.107,3.107,0,0,1,2.229,2.969Z" transform="translate(-195.576 -27.589)" fill="#fff"/>
    <circle id="楕円形_37" data-name="楕円形 37" cx="6.61" cy="6.61" r="6.61" transform="translate(136.262 365.66)" fill="#009688"/>
    <path id="パス_168" data-name="パス 168" d="M425.6,526h-3.509v-3.509h-1.306V526h-3.509V527.3h3.509v3.509h1.306V527.3H425.6Z" transform="translate(-278.567 -154.379)" fill="#fff"/>
    <path id="パス_169" data-name="パス 169" d="M488.4,536.341l-3.419-1.6v.912H477v1.368h7.977v.912Z" transform="translate(-324.678 -163.844)" fill="#3f3d56"/>
    <path id="パス_170" data-name="パス 170" d="M344.072,536.341l3.419-1.6v.912h7.977v1.368h-7.977v.912Z" transform="translate(-222.047 -163.844)" fill="#3f3d56"/>
    <rect id="長方形_971" data-name="長方形 971" width="215" height="0.456" transform="translate(59.337 424.921)" fill="#3f3d56"/>
    <rect id="長方形_972" data-name="長方形 972" width="43.762" height="0.456" transform="translate(120.991 285.43)" fill="#020202"/>
    <rect id="長方形_973" data-name="長方形 973" width="43.762" height="0.456" transform="translate(121.097 409.878)" fill="#020202"/>
    <path id="パス_198" data-name="パス 198" d="M455.509,161.032v21.536l22.445-1.959" transform="translate(-275.567 164.655)" fill="rgba(0,0,0,0)" stroke="#fff" stroke-miterlimit="10" stroke-width="1"/>
    <path id="パス_209" data-name="パス 209" d="M0,0,2.1.2l.022,9.329L0,9.72Z" transform="translate(186.506 335.45)" fill="#fff"/>
    <path id="パス_208" data-name="パス 208" d="M0,0,2.1.3l.073,16.552L0,17.057Z" transform="translate(182.169 328.5)" fill="#fff"/>
    <g id="グループ_458" data-name="グループ 458" transform="translate(213.9 313.05)">
      <path id="パス_187" data-name="パス 187" d="M341.086,501.452s-5.827.388-6.863-.388-5.439,1.036-5.827,2.072,6.216,1.165,7.252,1.165a47.638,47.638,0,0,1,5.957,1.554Z" transform="translate(-305.392 -460.423)" fill="#fbbebe"/>
      <path id="パス_188" data-name="パス 188" d="M350.228,451.551a14.268,14.268,0,0,1,9.4,19.737l-12.982-5.923Z" transform="translate(-329.31 -423.526)" fill="#009688"/>
      <path id="パス_189" data-name="パス 189" d="M378.194,472.773l12.982,5.923a14.27,14.27,0,1,1-9.4-19.737Z" transform="translate(-363.92 -428.724)" fill="#009688"/>
      <path id="パス_190" data-name="パス 190" d="M284.7,560.752l2.065,19.592s.647,7.77,2.59,9.453c0,0,0,2.46.647,3.237l.906,10.23s-1.295,3.755-1.165,4.4-.518,2.719-.388,2.978,6.216,0,6.216,0L294.271,589.8l-4.014-29.006Z" transform="translate(-248.347 -505.212)" fill="#3c354c"/>
      <path id="パス_191" data-name="パス 191" d="M284.7,560.752l2.065,19.592s.647,7.77,2.59,9.453c0,0,0,2.46.647,3.237l.906,10.23s-1.295,3.755-1.165,4.4-.518,2.719-.388,2.978,6.216,0,6.216,0L294.271,589.8l-4.014-29.006Z" transform="translate(-248.347 -505.212)" opacity="0.1"/>
      <ellipse id="楕円形_59" data-name="楕円形 59" cx="6.475" cy="5.05" rx="6.475" ry="5.05" transform="translate(30.32 1.211)" fill="#3f3d56"/>
      <path id="パス_199" data-name="パス 199" d="M292.032,752.9s2.716,6.848,1.3,7.675-16.294.236-16.294.236-2.48-1.535.354-2.6a9.727,9.727,0,0,0,3.9-1.063,22.577,22.577,0,0,0,3.306-2.716s.118-2.6,1.063-2.007a2.426,2.426,0,0,1,1.063,1.653Z" transform="translate(-244.339 -648.527)" fill="#3f3d56"/>
      <path id="パス_200" data-name="パス 200" d="M292.032,752.9s2.716,6.848,1.3,7.675-16.294.236-16.294.236-2.48-1.535.354-2.6a9.727,9.727,0,0,0,3.9-1.063,22.577,22.577,0,0,0,3.306-2.716s.118-2.6,1.063-2.007a2.426,2.426,0,0,1,1.063,1.653Z" transform="translate(-244.339 -648.527)" opacity="0.1"/>
      <path id="パス_201" data-name="パス 201" d="M276.305,749.054s2.978,7.51,1.424,8.417-17.87.259-17.87.259-2.719-1.683.388-2.849a10.668,10.668,0,0,0,4.273-1.165,24.761,24.761,0,0,0,3.626-2.978s.129-2.849,1.165-2.2a2.661,2.661,0,0,1,1.165,1.813Z" transform="translate(-224.425 -645.61)" fill="#3f3d56"/>
      <path id="パス_202" data-name="パス 202" d="M257.982,549.7s1.424,13.338,2.072,16.187a36.831,36.831,0,0,1,.777,5.7s.129,4.144,1.295,5.309a3.5,3.5,0,0,1,1.036,2.59s1.165,13.079.518,14.633-1.526,3.573-.879,4.609,8,.312,8-.465,0-1.424.388-1.813,0-2.849,0-2.849,1.554-11.525.129-14.892-2.072-12.561-2.072-12.561,1.036-10.489,2.331-12.172-.259-7.64-.259-7.64Z" transform="translate(-218.144 -494.427)" fill="#3c354c"/>
      <path id="パス_203" data-name="パス 203" d="M305.992,384.254a1.741,1.741,0,0,1-.839.715,25.088,25.088,0,0,0-5.061,4.067,5.941,5.941,0,0,0-.236-4.018,2.071,2.071,0,0,1-.3-1.352,1.684,1.684,0,0,1,.657-.786,20.356,20.356,0,0,1,2-1.366c.485-.29,1.482-1.062,2.038-.978a5.168,5.168,0,0,0,.374,2.126C304.707,382.829,305.935,384.385,305.992,384.254Z" transform="translate(-262.509 -370.4)" fill="#fbbebe"/>
      <circle id="楕円形_60" data-name="楕円形 60" cx="5.309" cy="5.309" r="5.309" transform="translate(31.55 4.901)" fill="#fbbebe"/>
      <path id="パス_204" data-name="パス 204" d="M254.642,402.632s-.906-4.532,1.683-6.086,5.568-3.367,5.568-3.367.906-.129,1.295,1.813c0,0,7.381,1.424,8.158,8.417s-.518,17.222-.518,17.222a118.227,118.227,0,0,0,2.59,13.726s1.165,1.036-4.014-.518-14.244,4.4-14.244,4.4-.906-.906-.906-1.554-1.036-4.4-1.036-4.4-.906-15.928-1.295-17.74S253.477,402.891,254.642,402.632Z" transform="translate(-218.042 -379.861)" fill="#3f3d56"/>
      <path id="パス_205" data-name="パス 205" d="M305.963,351.085a2.214,2.214,0,0,0-1.041-.277,1.982,1.982,0,0,1-1.03-.307c-.5-.385-.538-1.129-.905-1.644a2.831,2.831,0,0,0-2.505-.8,2.776,2.776,0,0,1-1.633-.246,2.452,2.452,0,0,1-.866-1.447,1.961,1.961,0,0,1,.16-1.932c.332-.336.856-.4,1.224-.7a3.236,3.236,0,0,0,.747-1.246,3.368,3.368,0,0,1,1.084-1.358,4.146,4.146,0,0,1,2.43-.582,19.029,19.029,0,0,0,2.537.016,7.753,7.753,0,0,1,2.061-.213,2.947,2.947,0,0,1,2.029,1.561,8.72,8.72,0,0,1,.8,2.519l.488,2.354a6.212,6.212,0,0,1,.186,2.216c-.242,1.527-1.592,2.74-1.685,4.283a2.63,2.63,0,0,0-1.6-1.908.5.5,0,0,0-.327-.04c-.134.043-.213.177-.3.289-.222.295-.919.742-1.314.533C306.144,351.974,306.408,351.386,305.963,351.085Z" transform="translate(-267.853 -340.328)" fill="#3f3d56"/>
      <path id="パス_206" data-name="パス 206" d="M292.522,475.042s.906,5.7-2.849,5.18c0,0-1.942-.259-2.2,0s-9.841-1.424-11.136-2.849c0,0-1.554-.518-2.331.259s-8.546,1.554-6.216-.777a11.858,11.858,0,0,1,5.957-2.849l4.921.259s2.59.777,4.144,0,5.957-.518,5.957-.518Z" transform="translate(-241.03 -440.099)" fill="#fbbebe"/>
      <path id="パス_207" data-name="パス 207" d="M269.71,407.574s5.827.647,5.827,9.064v10.748s-3.237-1.424-3.885-1.295-3.237-1.683-3.237-1.683-2.978-6.993-2.719-8.935S265.825,407.833,269.71,407.574Z" transform="translate(-223.527 -390.63)" fill="#3f3d56"/>
      <ellipse id="楕円形_61" data-name="楕円形 61" cx="4.985" cy="2.59" rx="4.985" ry="2.59" transform="translate(31.874 4.318)" fill="#3f3d56"/>
      <ellipse id="楕円形_62" data-name="楕円形 62" cx="1.748" cy="4.338" rx="1.748" ry="4.338" transform="translate(39.773 3.023)" fill="#3f3d56"/>
    </g>
    <path id="パス_216" data-name="パス 216" d="M0,0,2.1.11l.022,5.179L0,5.4Z" transform="translate(190.506 339.49)" fill="#fff"/>
    <path id="パス_217" data-name="パス 217" d="M0,0,2.1.284V13.837L0,13.97Z" transform="translate(194.506 330.626)" fill="#fff"/>
    <path id="パス_218" data-name="パス 218" d="M0,0,2.1.156l.022,7.375L0,7.684Z" transform="translate(198.506 336.612)" fill="#fff"/>
  </g>
</svg>
