<svg xmlns="http://www.w3.org/2000/svg" width="233.531" height="104.296" viewBox="0 0 233.531 104.296">
  <g id="グループ_445" data-name="グループ 445" transform="translate(-2517 -6588.669)">
    <path id="パス_130" data-name="パス 130" d="M0,0H36.489V10.035H0Z" transform="translate(2555.934 6631.244) rotate(30)" fill="#009688"/>
    <path id="パス_131" data-name="パス 131" d="M0,0H36.489V10.035H0Z" transform="translate(2591.647 6598.868) rotate(60)" fill="#009688"/>
    <path id="パス_132" data-name="パス 132" d="M0,0H36.489V10.035H0Z" transform="translate(2638.783 6588.669) rotate(90)" fill="#009688"/>
    <path id="パス_133" data-name="パス 133" d="M0,0H36.489V10.035H0Z" transform="translate(2657.699 6630.24) rotate(-60)" fill="#009688"/>
    <path id="パス_134" data-name="パス 134" d="M0,0H36.489V10.035H0Z" transform="translate(2680.225 6649.092) rotate(-30)" fill="#009688"/>
    <path id="パス_135" data-name="パス 135" d="M0,0H233.531V12.771H0Z" transform="translate(2517 6680.194)" fill="#009688"/>
    <path id="パス_141" data-name="パス 141" d="M38.454,0Z" transform="translate(2595.312 6647.354)" fill="#fff"/>
    <path id="前面オブジェクトで型抜き_1" data-name="前面オブジェクトで型抜き 1" d="M.91,42.082A34.383,34.383,0,0,1,0,34.209a34.218,34.218,0,0,1,65.339-14.2A33.936,33.936,0,0,1,68.39,32.84H.912v9.241Z" transform="translate(2599.101 6647.354)" fill="#009688"/>
  </g>
</svg>
