<svg xmlns="http://www.w3.org/2000/svg" width="229.896" height="193" viewBox="0 0 229.896 193">
  <g id="グループ_450" data-name="グループ 450" transform="translate(-2479.506 -7197.999)">
    <path id="前面オブジェクトで型抜き_9" data-name="前面オブジェクトで型抜き 9" d="M155,193H0V164.351a23.642,23.642,0,0,0,4.748.481H16.057a23.473,23.473,0,1,0,0-46.946H4.748A23.684,23.684,0,0,0,0,118.366V75.676a23.639,23.639,0,0,0,4.748.481H16.057a23.473,23.473,0,1,0,0-46.946H4.748A23.656,23.656,0,0,0,0,29.691V0H155V50.52L86.976,118.1v42.308H129.7l25.3-25.9V193Zm-29.079-44.624H98.946V122.133L155,66.684v51.423l-29.079,30.269Z" transform="translate(2498.506 7197.999)" fill="#009688"/>
    <path id="パス_153" data-name="パス 153" d="M2656,7255.761l-62.595,62.311v25.737h26.178l61.542-63.061Z" transform="translate(4.902 2.497)" fill="#009688"/>
    <path id="パス_154" data-name="パス 154" d="M2684.312,7272.75" transform="translate(8.832 3.231)" fill="none" stroke="#707070" stroke-width="1"/>
    <path id="長方形_968" data-name="長方形 968" d="M12,0H24.513a12,12,0,0,1,12,12V22.951a0,0,0,0,1,0,0H0a0,0,0,0,1,0,0V12A12,12,0,0,1,12,0Z" transform="translate(2683.583 7234.607) rotate(45)" fill="#009688"/>
    <rect id="長方形_967" data-name="長方形 967" width="47" height="21" rx="10.5" transform="translate(2479.506 7239.999)" fill="#009688"/>
    <rect id="長方形_969" data-name="長方形 969" width="47" height="21" rx="10.5" transform="translate(2479.506 7327.999)" fill="#009688"/>
  </g>
</svg>
