<svg xmlns="http://www.w3.org/2000/svg" width="250" height="258.515" viewBox="0 0 250 258.515">
  <g id="グループ_476" data-name="グループ 476" transform="translate(0 -0.73)">
    <rect id="長方形_998" data-name="長方形 998" width="11.086" height="176.026" transform="matrix(0.836, -0.548, 0.548, 0.836, 48.066, 100.403)" fill="#e6e6e6"/>
    <path id="パス_241" data-name="パス 241" d="M277.149,167.986l21.447,32.7a2.855,2.855,0,1,1-4.775,3.132l-24.656-37.593a20.366,20.366,0,0,0-9.792,1.608l26.864,40.959a2.855,2.855,0,1,1-4.775,3.132L254.6,170.966a20.366,20.366,0,0,0-5.377,8.341L273.877,216.9a2.855,2.855,0,1,1-4.775,3.132l-21.447-32.7c-.551,9.118,2.422,19.924,8.937,29.858,12.108,18.461,31.859,26.911,44.115,18.873s12.375-29.52.267-47.982C294.459,178.146,285.731,171.114,277.149,167.986Z" transform="translate(-243.697 -134.684)" fill="#e6e6e6"/>
    <rect id="長方形_999" data-name="長方形 999" width="12" height="176" transform="translate(87.559 74.36)" fill="#e6e6e6"/>
    <ellipse id="楕円形_82" data-name="楕円形 82" cx="26.5" cy="39.5" rx="26.5" ry="39.5" transform="translate(66.39 0.73)" fill="#e6e6e6"/>
    <ellipse id="楕円形_83" data-name="楕円形 83" cx="21.835" cy="32.891" rx="21.835" ry="32.891" transform="translate(71.422 7.113)" fill="#ccc"/>
    <ellipse id="楕円形_84" data-name="楕円形 84" cx="125" cy="7.016" rx="125" ry="7.016" transform="translate(0 245.214)" fill="#e6e6e6"/>
    <path id="パス_242" data-name="パス 242" d="M529.539,672.312a390.611,390.611,0,0,0-138.582,0A5.056,5.056,0,0,1,385,667.343V604.557H535.5v62.785a5.055,5.055,0,0,1-5.957,4.969Z" transform="translate(-332.05 -420.185)" fill="#009688"/>
    <path id="パス_243" data-name="パス 243" d="M482.467,400.814a32.92,32.92,0,0,0-10.5,1.709c-10.061-21.214-31.846-34.847-55.875-34.965s-45.955,13.3-56.236,34.414a32.578,32.578,0,0,0-35.765,13.264,30.558,30.558,0,0,0,2.659,37.123,32.761,32.761,0,0,0,37.31,8.316,62.835,62.835,0,0,0,103.923-.727,32.856,32.856,0,0,0,36.047-4.724,30.653,30.653,0,0,0,8.426-34.4A32.13,32.13,0,0,0,482.467,400.814Z" transform="translate(-291.141 -262.8)" fill="#009688"/>
    <path id="パス_244" data-name="パス 244" d="M419.671,495.433H419a59.931,59.931,0,0,1,5.794-25.862l.607.288A59.261,59.261,0,0,0,419.671,495.433Z" transform="translate(-356.119 -332.885)" fill="#3f3d56"/>
    <path id="パス_245" data-name="パス 245" d="M766.852,496.527h-.672a59.3,59.3,0,0,0-5.474-25.027l.61-.281a59.968,59.968,0,0,1,5.535,25.308Z" transform="translate(-580.417 -333.973)" fill="#3f3d56"/>
    <path id="パス_246" data-name="パス 246" d="M384.921,673.732l-.162-.652c.19-.047,19.283-4.736,47.265-7.063,25.826-2.147,64.729-2.665,103.394,7.064l-.164.651c-38.57-9.7-77.387-9.189-103.16-7.047C404.162,669.006,385.11,673.685,384.921,673.732Z" transform="translate(-331.889 -461.198)" fill="#3f3d56"/>
    <path id="パス_247" data-name="パス 247" d="M384.921,700.732l-.162-.652c.19-.047,19.283-4.737,47.265-7.063,25.826-2.147,64.729-2.665,103.394,7.064l-.164.651c-38.57-9.7-77.387-9.188-103.16-7.047C404.162,696.007,385.11,700.685,384.921,700.732Z" transform="translate(-331.889 -478.074)" fill="#3f3d56"/>
    <path id="パス_248" data-name="パス 248" d="M384.921,727.732l-.162-.652c.19-.047,19.283-4.737,47.265-7.063,25.826-2.147,64.729-2.665,103.394,7.064l-.164.652c-38.57-9.7-77.387-9.188-103.16-7.047C404.162,723.007,385.11,727.685,384.921,727.732Z" transform="translate(-331.889 -496.004)" fill="#3f3d56"/>
    <path id="パス_249" data-name="パス 249" d="M664.768,483.5l-8.14-2.767,7.814-39.884-5.372-.488c-5.238,4.019-12.214,5.595-21.163,4.4l14.326,21.651-7.3,5.156-23.3-27.951A7.01,7.01,0,0,1,620,439.128h0a7.009,7.009,0,0,1,5.069-6.736l24.885-7.168,29.14,3.256c4.406,6.717,4.578,11.388-2.129,12.735Z" transform="translate(-487.152 -303.318)" fill="#2f2e41"/>
    <path id="パス_250" data-name="パス 250" d="M718.539,604.5h0a5.361,5.361,0,0,1-4.658-7.293l4.047-10.406c2.055-3.894,4.877-3.406,8.208,0l1.628,4.775a3.082,3.082,0,0,1-.18,2.411l-3.944,7.626A5.361,5.361,0,0,1,718.539,604.5Z" transform="translate(-549.31 -408.056)" fill="#2f2e41"/>
    <path id="パス_251" data-name="パス 251" d="M687.224,563.933h0a5.361,5.361,0,0,1-4.658-7.293l4.047-10.406c2.055-3.894,4.876-3.406,8.208,0l1.628,4.775a3.082,3.082,0,0,1-.18,2.411l-3.944,7.626A5.361,5.361,0,0,1,687.224,563.933Z" transform="translate(-528.764 -381.449)" fill="#2f2e41"/>
    <circle id="楕円形_85" data-name="楕円形 85" cx="9.116" cy="9.116" r="9.116" transform="translate(154.605 63.647)" fill="#ffb9b9"/>
    <path id="パス_252" data-name="パス 252" d="M488.792,229.5l-12.535,6.512-2.6-11.721,8.628-5.372Z" transform="translate(-310.763 -143.608)" fill="#ffb9b9"/>
    <path id="パス_253" data-name="パス 253" d="M720.3,351.551c-12.508-3.778-23.857-5.735-32.07-2.767,2.831-7.964-2.394-20.126-8.14-32.559,2.479-3.241,6.432-4.5,10.907-5.047,4.9,3.556,8.311,1.273,10.907-4.233,5.662-.227,11.118,1.778,16.442,5.209A56.169,56.169,0,0,0,720.3,351.551Z" transform="translate(-526.934 -226.058)" fill="#3f3d56"/>
    <path id="パス_254" data-name="パス 254" d="M671.881,366.54a19.576,19.576,0,0,0-5.535,5.535,30.37,30.37,0,0,1-7.554-6.276,13.441,13.441,0,0,1-2.462-12.573l5.563-18.08a7.931,7.931,0,0,1,2.579-3.823l.734-.6,7.326,13.837-7.326,13.675C666.136,360.729,668.873,363.605,671.881,366.54Z" transform="translate(-511.351 -241.682)" fill="#3f3d56"/>
    <path id="パス_255" data-name="パス 255" d="M695.889,450.366h0a4.7,4.7,0,0,1-6.607-3.6l-1.211-8.289L692.3,436.2l5.372,7.032a4.7,4.7,0,0,1-1.787,7.137Z" transform="translate(-532.675 -311.142)" fill="#ffb9b9"/>
    <path id="パス_256" data-name="パス 256" d="M699.86,257.343l-1.557.046-4.318-6.116a23.051,23.051,0,0,0-13.9,6.658l-.389-2.593a9.776,9.776,0,0,1,7.694-11.025h0A9.776,9.776,0,0,1,699,252.259Z" transform="translate(-526.955 -185.112)" fill="#2f2e41"/>
    <path id="パス_257" data-name="パス 257" d="M686.99,438.372h0a4.7,4.7,0,0,1,3.6-6.607l8.289-1.211,2.279,4.233-7.032,5.372a4.7,4.7,0,0,1-7.136-1.787Z" transform="translate(-531.625 -307.487)" fill="#ffb9b9"/>
    <path id="パス_258" data-name="パス 258" d="M748.591,358.1c-7.886.612-16.5,3.071-25.51,6.56a12.47,12.47,0,0,0-2.768-7.326c8.187-2.156,15.615-4.687,20.186-8.628l-2.767-20.838,6.023-6.837,1.039.542a6.938,6.938,0,0,1,3.517,4.415c2.543,9.893,3.673,19.371,2.9,28.291A3.518,3.518,0,0,1,748.591,358.1Z" transform="translate(-553.469 -235.308)" fill="#3f3d56"/>
    <path id="パス_259" data-name="パス 259" d="M286.988,739.126q-11,6.881-22-.006a1.492,1.492,0,0,1-.706-1.376l2.288-29.75h18.51l2.615,29.74A1.492,1.492,0,0,1,286.988,739.126Z" transform="translate(-254.777 -488.875)" fill="#3f3d56"/>
    <ellipse id="楕円形_86" data-name="楕円形 86" cx="9.34" cy="3.365" rx="9.34" ry="3.365" transform="translate(11.62 216.091)" fill="#3f3d56"/>
    <path id="パス_260" data-name="パス 260" d="M292.247,694.97q-7.3,5.136-14.135,0v-5.385h14.135Z" transform="translate(-263.966 -476.65)" fill="#009688"/>
    <ellipse id="楕円形_87" data-name="楕円形 87" cx="7.067" cy="2.692" rx="7.067" ry="2.692" transform="translate(14.147 210.243)" fill="#009688"/>
    <ellipse id="楕円形_88" data-name="楕円形 88" cx="0.673" cy="0.337" rx="0.673" ry="0.337" transform="translate(20.878 212.262)" fill="#e6e6e6"/>
    <ellipse id="楕円形_89" data-name="楕円形 89" cx="0.673" cy="0.337" rx="0.673" ry="0.337" transform="translate(24.056 212.262)" fill="#e6e6e6"/>
    <ellipse id="楕円形_90" data-name="楕円形 90" cx="0.673" cy="0.337" rx="0.673" ry="0.337" transform="translate(22.467 213.057)" fill="#e6e6e6"/>
    <ellipse id="楕円形_91" data-name="楕円形 91" cx="0.673" cy="0.337" rx="0.673" ry="0.337" transform="translate(16.11 213.057)" fill="#e6e6e6"/>
    <ellipse id="楕円形_92" data-name="楕円形 92" cx="0.673" cy="0.337" rx="0.673" ry="0.337" transform="translate(17.699 212.262)" fill="#e6e6e6"/>
    <ellipse id="楕円形_93" data-name="楕円形 93" cx="0.673" cy="0.337" rx="0.673" ry="0.337" transform="translate(19.289 213.454)" fill="#e6e6e6"/>
    <path id="パス_261" data-name="パス 261" d="M891.988,739.126q-11,6.881-22-.006a1.492,1.492,0,0,1-.706-1.376l2.288-29.75h18.51l2.615,29.74A1.492,1.492,0,0,1,891.988,739.126Z" transform="translate(-651.097 -488.875)" fill="#3f3d56"/>
    <ellipse id="楕円形_94" data-name="楕円形 94" cx="9.34" cy="3.365" rx="9.34" ry="3.365" transform="translate(220.301 216.091)" fill="#3f3d56"/>
    <path id="パス_262" data-name="パス 262" d="M897.247,694.97q-7.3,5.136-14.135,0v-5.385h14.135Z" transform="translate(-660.285 -476.65)" fill="#009688"/>
    <ellipse id="楕円形_95" data-name="楕円形 95" cx="7.067" cy="2.692" rx="7.067" ry="2.692" transform="translate(222.828 210.243)" fill="#009688"/>
    <ellipse id="楕円形_96" data-name="楕円形 96" cx="0.673" cy="0.337" rx="0.673" ry="0.337" transform="translate(229.559 212.262)" fill="#e6e6e6"/>
    <ellipse id="楕円形_97" data-name="楕円形 97" cx="0.673" cy="0.337" rx="0.673" ry="0.337" transform="translate(232.737 212.262)" fill="#e6e6e6"/>
    <ellipse id="楕円形_98" data-name="楕円形 98" cx="0.673" cy="0.337" rx="0.673" ry="0.337" transform="translate(231.148 213.057)" fill="#e6e6e6"/>
    <ellipse id="楕円形_99" data-name="楕円形 99" cx="0.673" cy="0.337" rx="0.673" ry="0.337" transform="translate(224.791 213.057)" fill="#e6e6e6"/>
    <ellipse id="楕円形_100" data-name="楕円形 100" cx="0.673" cy="0.337" rx="0.673" ry="0.337" transform="translate(226.38 212.262)" fill="#e6e6e6"/>
    <ellipse id="楕円形_101" data-name="楕円形 101" cx="0.673" cy="0.337" rx="0.673" ry="0.337" transform="translate(227.969 213.454)" fill="#e6e6e6"/>
  </g>
</svg>
