<svg xmlns="http://www.w3.org/2000/svg" width="213" height="213" viewBox="0 0 213 213">
  <g id="グループ_495" data-name="グループ 495" transform="translate(-2830.411 -6543.411)">
    <g id="楕円形_34" data-name="楕円形 34" transform="translate(2878.411 6592.411)" fill="none" stroke="#009688" stroke-width="15">
      <circle cx="58" cy="58" r="58" stroke="none"/>
      <circle cx="58" cy="58" r="50.5" fill="none"/>
    </g>
    <g id="長方形_946" data-name="長方形 946" transform="translate(2830.411 6641.411)" fill="none" stroke="#009688" stroke-width="10">
      <rect width="33" height="17" stroke="none"/>
      <rect x="5" y="5" width="23" height="7" fill="none"/>
    </g>
    <g id="長方形_947" data-name="長方形 947" transform="translate(2854.735 6719.933) rotate(-45)" fill="none" stroke="#009688" stroke-width="10">
      <rect width="33.216" height="16.608" stroke="none"/>
      <rect x="5" y="5" width="23.216" height="6.608" fill="none"/>
    </g>
    <g id="長方形_948" data-name="長方形 948" transform="translate(2944.411 6723.411) rotate(90)" fill="none" stroke="#009688" stroke-width="10">
      <rect width="33" height="16" stroke="none"/>
      <rect x="5" y="5" width="23" height="6" fill="none"/>
    </g>
    <g id="長方形_949" data-name="長方形 949" transform="translate(2994.359 6696.445) rotate(45)" fill="none" stroke="#009688" stroke-width="10">
      <rect width="33.216" height="16.608" stroke="none"/>
      <rect x="5" y="5" width="23.216" height="6.608" fill="none"/>
    </g>
    <g id="長方形_950" data-name="長方形 950" transform="translate(3010.411 6641.411)" fill="none" stroke="#009688" stroke-width="10">
      <rect width="33" height="17" stroke="none"/>
      <rect x="5" y="5" width="23" height="7" fill="none"/>
    </g>
    <g id="長方形_951" data-name="長方形 951" transform="translate(2982.615 6592.052) rotate(-45)" fill="none" stroke="#009688" stroke-width="10">
      <rect width="33.216" height="16.608" stroke="none"/>
      <rect x="5" y="5" width="23.216" height="6.608" fill="none"/>
    </g>
    <g id="長方形_952" data-name="長方形 952" transform="translate(2944.411 6543.411) rotate(90)" fill="none" stroke="#009688" stroke-width="10">
      <rect width="33" height="16" stroke="none"/>
      <rect x="5" y="5" width="23" height="6" fill="none"/>
    </g>
    <g id="長方形_953" data-name="長方形 953" transform="translate(2866.478 6568.565) rotate(45)" fill="none" stroke="#009688" stroke-width="10">
      <rect width="33.216" height="16.608" stroke="none"/>
      <rect x="5" y="5" width="23.216" height="6.608" fill="none"/>
    </g>
  </g>
</svg>
