<svg xmlns="http://www.w3.org/2000/svg" width="40" height="40" viewBox="0 0 40 40">
  <path id="user-avatar" d="M20,8A20,20,0,1,0,40,28,20,20,0,0,0,20,8Zm0,7.742a7.1,7.1,0,1,1-7.1,7.1A7.1,7.1,0,0,1,20,15.742Zm0,27.742a15.454,15.454,0,0,1-11.815-5.5,8.991,8.991,0,0,1,7.944-4.823,1.973,1.973,0,0,1,.573.089,10.677,10.677,0,0,0,3.3.556,10.637,10.637,0,0,0,3.3-.556,1.973,1.973,0,0,1,.573-.089,8.991,8.991,0,0,1,7.944,4.823A15.454,15.454,0,0,1,20,43.484Z" transform="translate(0 -8)" fill="#aeb5bc"/>
</svg>
